<svg width="96" height="96" viewBox="0 0 96 96" fill="none" xmlns="http://www.w3.org/2000/svg">
<mask id="mask0_1106_262" style="mask-type:alpha" maskUnits="userSpaceOnUse" x="0" y="0" width="96" height="96">
<rect width="96" height="96" fill="#D9D9D9"/>
</mask>
<g mask="url(#mask0_1106_262)">
<path d="M22.6 79.5999V28.7999H38.6V14.1999L48 5.3999L57.4 14.1999V44.7999H73.4V79.5999H22.6ZM25.4 76.7999H38.6V63.5999H25.4V76.7999ZM25.4 60.7999H38.6V47.5999H25.4V60.7999ZM25.4 44.7999H38.6V31.5999H25.4V44.7999ZM41.4 76.7999H54.6V63.5999H41.4V76.7999ZM41.4 60.7999H54.6V47.5999H41.4V60.7999ZM41.4 44.7999H54.6V31.5999H41.4V44.7999ZM41.4 28.7999H54.6V15.5999H41.4V28.7999ZM57.4 76.7999H70.6V63.5999H57.4V76.7999ZM57.4 60.7999H70.6V47.5999H57.4V60.7999Z" fill="#BEF76B"/>
</g>
</svg>
