<svg width="96" height="96" viewBox="0 0 96 96" fill="none" xmlns="http://www.w3.org/2000/svg">
<mask id="mask0_1106_318" style="mask-type:alpha" maskUnits="userSpaceOnUse" x="0" y="0" width="96" height="96">
<rect width="96" height="96" fill="#D9D9D9"/>
</mask>
<g mask="url(#mask0_1106_318)">
<path d="M19.8 78.8V76H27.8V17.2H57.4V21.2H68.2V44.2H65.4V24H57.4V50.4H54.6V20H30.6V76H49.4V78.8H19.8ZM69.4 80.6L69.2 77.9C67.4667 77.5666 66.0667 77.0666 65 76.4C63.9333 75.7333 62.9333 74.9 62 73.9L59.6 75.2L57.8 72.8L60.1 71C59.5 69.4 59.2 67.8666 59.2 66.4C59.2 64.9333 59.5 63.4 60.1 61.8L57.8 60L59.6 57.6L62 58.9C62.9333 57.9 63.9333 57.0666 65 56.4C66.0667 55.7333 67.4667 55.2333 69.2 54.9L69.4 52.2H72.2L72.4 54.9C74.1333 55.2333 75.5333 55.7333 76.6 56.4C77.6667 57.0666 78.6667 57.9 79.6 58.9L82 57.6L83.8 60L81.5 61.8C82.1 63.4 82.4 64.9333 82.4 66.4C82.4 67.8666 82.1 69.4 81.5 71L83.8 72.8L82 75.2L79.6 73.9C78.6667 74.9 77.6667 75.7333 76.6 76.4C75.5333 77.0666 74.1333 77.5666 72.4 77.9L72.2 80.6H69.4ZM70.7788 75.2C73.1929 75.2 75.2667 74.3404 77 72.6212C78.7333 70.902 79.6 68.8354 79.6 66.4212C79.6 64.007 78.7404 61.9333 77.0212 60.2C75.3021 58.4666 73.2354 57.6 70.8212 57.6C68.4071 57.6 66.3333 58.4596 64.6 60.1788C62.8667 61.8979 62 63.9646 62 66.3787C62 68.7929 62.8596 70.8666 64.5788 72.6C66.2979 74.3333 68.3646 75.2 70.7788 75.2ZM46.6 50.8C45.8667 50.8 45.2167 50.5166 44.65 49.95C44.0833 49.3833 43.8 48.7333 43.8 48C43.8 47.2666 44.0833 46.6166 44.65 46.05C45.2167 45.4833 45.8667 45.2 46.6 45.2C47.3333 45.2 47.9833 45.4833 48.55 46.05C49.1167 46.6166 49.4 47.2666 49.4 48C49.4 48.7333 49.1167 49.3833 48.55 49.95C47.9833 50.5166 47.3333 50.8 46.6 50.8Z" fill="#BEF76B"/>
</g>
</svg>
